<svg xlink="http://www.w3.org/1999/xlink" viewBox="0 0 5000 5000" xmlns="http://www.w3.org/2000/svg" style="transform: scale(1);"><defs><filter id="goo"><feGaussianBlur in="SourceGraphic" stdDeviation="0" result="blur"></feGaussianBlur><feColorMatrix in="blur" type="matrix" values="1 0 0 0 0 0 1 0 0 0 0 0 1 0 0 0 0 0 19 -9" result="good"></feColorMatrix><feComposite in="SourceGraphic" in2="goo" operator="atop"></feComposite></filter><path d="M398,231L385,313L101,241L129,162L398,231z" id="P0"></path><path d="M223,356L181,334L264,142L351,210L223,356z" id="P1"></path><path d="M189,97L389,162L219,412L145,377L189,97z" id="P2"></path><path d="M369,265L301,359L145,192L174,158L369,265z" id="P3"></path><path d="M202,64L390,119L238,442L88,353L202,64z" id="P4"></path><path d="M350,129L392,183L166,383L104,308L350,129z" id="P5"></path></defs><rect id="RECT" width="5000" height="5000" fill="#E9E9F4"></rect><g id="group" fill="#74737B" filter="" opacity="0.68"><use x="931" y="391" href="#P3"></use><use x="887" y="1993" href="#P5"></use><use x="731" y="2604" href="#P3"></use><use x="-123" y="3863" href="#P3"></use><use x="31" y="4845" href="#P1"></use><use x="2066" y="795" href="#P0"></use><use x="2134" y="2057" href="#P3"></use><use x="1548" y="2544" href="#P3"></use><use x="1924" y="3604" href="#P0"></use><use x="2428" y="5704" href="#P2"></use><use x="2658" y="770" href="#P0"></use><use x="3805" y="1431" href="#P0"></use><use x="3079" y="2921" href="#P4"></use><use x="3248" y="4119" href="#P5"></use><use x="3466" y="5324" href="#P1"></use><use x="4309" y="679" href="#P3"></use><use x="4582" y="1155" href="#P3"></use><use x="4181" y="3111" href="#P5"></use><use x="4205" y="4120" href="#P4"></use><use x="4379" y="5325" href="#P0"></use></g></svg>