<svg xlink="http://www.w3.org/1999/xlink" viewBox="0 0 5000 5000" xmlns="http://www.w3.org/2000/svg" style="transform: scale(1);"><defs><filter id="goo"><feGaussianBlur in="SourceGraphic" stdDeviation="0" result="blur"></feGaussianBlur><feColorMatrix in="blur" type="matrix" values="1 0 0 0 0 0 1 0 0 0 0 0 1 0 0 0 0 0 19 -9" result="good"></feColorMatrix><feComposite in="SourceGraphic" in2="goo" operator="atop"></feComposite></filter><path d="M195,264C190,242 225,236 231,230C238,224 242,191 264,195C286,201 275,234 277,243C279,254 303,279 289,292C275,304 254,279 243,277C233,273 199,282 195,264z" id="P0"></path><path d="M258,282C250,284 244,273 238,269C233,266 220,267 218,258C216,250 227,244 231,238C234,233 233,220 242,218C250,216 256,227 261,230C266,233 279,232 282,242C284,250 273,256 270,261C267,266 268,279 258,282z" id="P1"></path><path d="M187,215C193,203 230,226 237,222C242,220 245,176 263,179C277,181 267,224 272,229C276,233 319,223 321,241C324,255 280,258 277,265C274,270 297,307 281,315C268,322 252,281 244,280C238,279 210,313 198,299C187,290 221,262 220,254C219,248 178,232 187,215z" id="P2"></path><path d="M362,279C349,322 272,285 260,288C247,291 205,363 171,335C139,302 209,253 212,240C216,226 184,146 221,138C258,128 265,212 277,221C288,232 373,242 362,279z" id="P3"></path><path d="M293,160C316,170 280,228 283,237C287,245 353,263 340,293C330,316 272,280 261,284C252,287 231,352 207,340C184,330 220,272 216,261C213,252 148,231 160,207C170,184 228,220 239,216C248,213 269,148 293,160z" id="P4"></path><path d="M211,283C204,275 224,258 224,252C223,247 200,234 207,223C212,214 234,228 240,226C245,223 250,197 263,201C272,202 266,228 270,233C274,237 300,234 301,247C302,257 276,258 272,264C270,268 281,292 269,297C260,302 250,277 243,275C239,274 219,292 211,283z" id="P5"></path><path d="M334,204C351,237 286,259 280,269C274,278 287,344 250,346C213,345 224,277 219,267C213,255 151,225 169,199C186,172 236,216 250,215C264,215 320,176 334,204z" id="P6"></path><path d="M234,167C255,163 261,218 269,223C276,228 329,213 333,234C337,255 282,261 277,269C272,276 287,329 266,333C245,337 239,282 232,278C225,273 173,292 167,266C163,245 218,239 222,232C227,225 208,173 234,167z" id="P7"></path><path d="M189,258C187,246 222,243 225,236C228,231 210,202 224,195C234,189 248,221 255,222C261,223 284,197 294,208C303,216 277,239 278,246C279,252 311,266 303,279C298,290 269,272 262,276C257,278 254,313 239,310C227,308 234,275 229,269C225,266 192,273 189,258z" id="P8"></path></defs><rect id="RECT" width="5000" height="5000" fill="#222"></rect><g id="group" fill="#74737B" filter="" opacity="0.68"><use x="97" y="90" href="#P0"></use><use x="501" y="1280" href="#P5"></use><use x="-100" y="1522" href="#P8"></use><use x="607" y="2559" href="#P6"></use><use x="366" y="3186" href="#P0"></use><use x="350" y="3978" href="#P5"></use><use x="198" y="4985" href="#P8"></use><use x="987" y="567" href="#P7"></use><use x="1393" y="1298" href="#P4"></use><use x="1423" y="1473" href="#P6"></use><use x="921" y="2605" href="#P8"></use><use x="898" y="3118" href="#P0"></use><use x="917" y="4216" href="#P0"></use><use x="1071" y="5310" href="#P7"></use><use x="2267" y="49" href="#P4"></use><use x="2336" y="640" href="#P1"></use><use x="2416" y="2071" href="#P7"></use><use x="1873" y="2771" href="#P6"></use><use x="2479" y="3020" href="#P6"></use><use x="1654" y="4648" href="#P7"></use><use x="2027" y="5187" href="#P2"></use><use x="2890" y="79" href="#P0"></use><use x="2508" y="890" href="#P2"></use><use x="3084" y="2017" href="#P6"></use><use x="3207" y="2368" href="#P7"></use><use x="3052" y="3239" href="#P0"></use><use x="3201" y="4563" href="#P6"></use><use x="3128" y="5232" href="#P3"></use><use x="4293" y="-304" href="#P6"></use><use x="4339" y="939" href="#P3"></use><use x="4191" y="1792" href="#P4"></use><use x="3913" y="2617" href="#P8"></use><use x="3702" y="3204" href="#P6"></use><use x="4104" y="3973" href="#P5"></use><use x="3988" y="5377" href="#P7"></use><use x="5203" y="492" href="#P3"></use><use x="4731" y="931" href="#P4"></use><use x="4673" y="1573" href="#P3"></use><use x="4292" y="2419" href="#P0"></use><use x="4664" y="3153" href="#P7"></use><use x="4915" y="4112" href="#P8"></use><use x="4795" y="5014" href="#P8"></use></g></svg>