<svg xlink="http://www.w3.org/1999/xlink" viewBox="0 0 5000 5000" xmlns="http://www.w3.org/2000/svg" style="transform: scale(1);"><defs><filter id="goo"><feGaussianBlur in="SourceGraphic" stdDeviation="0" result="blur"></feGaussianBlur><feColorMatrix in="blur" type="matrix" values="1 0 0 0 0 0 1 0 0 0 0 0 1 0 0 0 0 0 19 -9" result="good"></feColorMatrix><feComposite in="SourceGraphic" in2="goo" operator="atop"></feComposite></filter><path d="M279,252Q289,269 271,270L228,268C234,252 236,243 233,227Q271,212 279,252z" id="P0"></path><path d="M247,261L242,242L255,240L255,260L247,261z" id="P1"></path><path d="M234,279C235,260 232,251 221,234L264,220C261,237 264,240 280,236Q284,286 234,279z" id="P2"></path><path d="M246,240L261,249L251,261L240,253L246,240z" id="P3"></path><path d="M218,237C243,232 258,233 282,237C286,248 285,259 278,270L236,281L218,237z" id="P4"></path><path d="M264,261L254,267L232,253L248,232L264,261z" id="P5"></path><path d="M232,274C234,254 235,243 236,224L261,222C265,242 266,253 271,272C255,265 248,266 232,274z" id="P6"></path><path d="M266,249L259,263L236,243L259,236L266,249z" id="P7"></path></defs><rect id="RECT" width="5000" height="5000" fill="#F1F0F6"></rect><g id="group" fill="#525356" filter="" opacity="0.92"><use x="-12" y="195" href="#P2"></use><use x="-154" y="827" href="#P3"></use><use x="181" y="1630" href="#P6"></use><use x="-28" y="2109" href="#P2"></use><use x="119" y="2531" href="#P3"></use><use x="149" y="2743" href="#P3"></use><use x="-15" y="3595" href="#P4"></use><use x="-30" y="4024" href="#P1"></use><use x="149" y="5053" href="#P2"></use><use x="-57" y="5195" href="#P4"></use><use x="824" y="256" href="#P6"></use><use x="937" y="532" href="#P7"></use><use x="987" y="1391" href="#P4"></use><use x="565" y="1708" href="#P5"></use><use x="772" y="2584" href="#P7"></use><use x="864" y="2954" href="#P2"></use><use x="968" y="3399" href="#P6"></use><use x="548" y="4398" href="#P2"></use><use x="1060" y="5008" href="#P0"></use><use x="1022" y="5439" href="#P4"></use><use x="1233" y="22" href="#P6"></use><use x="1469" y="836" href="#P1"></use><use x="1231" y="923" href="#P0"></use><use x="1084" y="2074" href="#P4"></use><use x="959" y="2431" href="#P3"></use><use x="928" y="3000" href="#P6"></use><use x="1604" y="3549" href="#P3"></use><use x="1103" y="4075" href="#P4"></use><use x="1285" y="5005" href="#P1"></use><use x="1068" y="5292" href="#P1"></use><use x="2119" y="-136" href="#P5"></use><use x="1741" y="370" href="#P1"></use><use x="1738" y="1430" href="#P3"></use><use x="2081" y="1643" href="#P3"></use><use x="1468" y="2357" href="#P1"></use><use x="2057" y="2970" href="#P0"></use><use x="1963" y="3422" href="#P2"></use><use x="1905" y="4393" href="#P4"></use><use x="1828" y="4935" href="#P7"></use><use x="2038" y="5471" href="#P2"></use><use x="2375" y="87" href="#P3"></use><use x="2613" y="710" href="#P2"></use><use x="2611" y="1434" href="#P0"></use><use x="2693" y="1925" href="#P4"></use><use x="2226" y="2094" href="#P1"></use><use x="2716" y="2888" href="#P6"></use><use x="2614" y="3834" href="#P0"></use><use x="2606" y="4434" href="#P1"></use><use x="2752" y="4851" href="#P1"></use><use x="2744" y="5600" href="#P0"></use><use x="2779" y="51" href="#P4"></use><use x="2876" y="512" href="#P1"></use><use x="2883" y="1104" href="#P5"></use><use x="3253" y="1581" href="#P2"></use><use x="3110" y="2553" href="#P2"></use><use x="3393" y="3108" href="#P6"></use><use x="2960" y="3699" href="#P5"></use><use x="2951" y="4122" href="#P4"></use><use x="2893" y="4844" href="#P3"></use><use x="2812" y="5474" href="#P4"></use><use x="3661" y="-191" href="#P3"></use><use x="3600" y="718" href="#P1"></use><use x="3431" y="1022" href="#P6"></use><use x="3760" y="1779" href="#P1"></use><use x="4032" y="2234" href="#P3"></use><use x="3501" y="3220" href="#P4"></use><use x="3717" y="3933" href="#P3"></use><use x="3669" y="4118" href="#P0"></use><use x="3581" y="4959" href="#P0"></use><use x="3572" y="5620" href="#P0"></use><use x="4518" y="246" href="#P4"></use><use x="4301" y="366" href="#P5"></use><use x="4354" y="1271" href="#P5"></use><use x="4151" y="2052" href="#P3"></use><use x="4571" y="2251" href="#P6"></use><use x="4605" y="2830" href="#P5"></use><use x="4387" y="3284" href="#P5"></use><use x="4204" y="4143" href="#P0"></use><use x="4146" y="4540" href="#P6"></use><use x="4011" y="5219" href="#P0"></use><use x="5008" y="-29" href="#P4"></use><use x="4743" y="715" href="#P1"></use><use x="4727" y="1102" href="#P7"></use><use x="5088" y="1868" href="#P5"></use><use x="4892" y="2621" href="#P7"></use><use x="5062" y="2800" href="#P1"></use><use x="4815" y="3483" href="#P3"></use><use x="4745" y="3797" href="#P5"></use><use x="5164" y="4394" href="#P7"></use><use x="5089" y="5112" href="#P7"></use></g></svg>