<svg xlink="http://www.w3.org/1999/xlink" viewBox="0 0 5000 5000" xmlns="http://www.w3.org/2000/svg" style="transform: scale(1);"><defs><filter id="goo"><feGaussianBlur in="SourceGraphic" stdDeviation="0" result="blur"></feGaussianBlur><feColorMatrix in="blur" type="matrix" values="1 0 0 0 0 0 1 0 0 0 0 0 1 0 0 0 0 0 19 -9" result="good"></feColorMatrix><feComposite in="SourceGraphic" in2="goo" operator="atop"></feComposite></filter><path d="M213,238L222,223C239,209 263,210 278,223C294,250 282,280 250,289Q203,284 213,238z" id="P0"></path><path d="M252,264L237,255L249,236L256,237L252,264z" id="P1"></path><path d="M275,242C263,256 255,264 242,275C230,269 223,257 225,244L253,224C263,226 271,232 275,242z" id="P2"></path><path d="M267,246L248,268L238,263L235,240L267,246z" id="P3"></path><path d="M272,238C276,260 259,277 235,270C238,256 237,249 229,237C241,241 242,240 239,227C252,223 264,227 272,238z" id="P4"></path><path d="M266,238L261,267L241,268L235,236L266,238z" id="P5"></path><path d="M230,241C242,241 247,239 253,228C265,232 273,243 272,254Q266,279 245,271L230,241z" id="P6"></path><path d="M257,268L231,250L244,232L269,249L257,268z" id="P7"></path></defs><rect id="RECT" width="5000" height="5000" fill="#050411"></rect><g id="group" fill="#FFF" filter="" opacity="0.92"><use x="-151" y="-67" href="#P1"></use><use x="195" y="531" href="#P7"></use><use x="78" y="1482" href="#P2"></use><use x="291" y="1828" href="#P6"></use><use x="337" y="2375" href="#P5"></use><use x="-93" y="2718" href="#P2"></use><use x="-219" y="3573" href="#P1"></use><use x="316" y="4262" href="#P2"></use><use x="168" y="4867" href="#P7"></use><use x="-156" y="5044" href="#P7"></use><use x="560" y="-178" href="#P2"></use><use x="591" y="520" href="#P6"></use><use x="563" y="1198" href="#P5"></use><use x="620" y="1789" href="#P4"></use><use x="639" y="2437" href="#P7"></use><use x="551" y="3081" href="#P6"></use><use x="423" y="3768" href="#P5"></use><use x="898" y="4280" href="#P3"></use><use x="899" y="4797" href="#P0"></use><use x="710" y="4988" href="#P2"></use><use x="1328" y="280" href="#P7"></use><use x="1088" y="870" href="#P1"></use><use x="1295" y="1129" href="#P0"></use><use x="1360" y="1653" href="#P5"></use><use x="1049" y="2280" href="#P4"></use><use x="1003" y="2725" href="#P3"></use><use x="1491" y="3409" href="#P6"></use><use x="1522" y="4126" href="#P3"></use><use x="1208" y="4698" href="#P6"></use><use x="1500" y="5136" href="#P1"></use><use x="2137" y="130" href="#P0"></use><use x="1950" y="850" href="#P6"></use><use x="2049" y="1472" href="#P4"></use><use x="1986" y="1922" href="#P0"></use><use x="1624" y="2535" href="#P2"></use><use x="1726" y="3132" href="#P3"></use><use x="2067" y="3723" href="#P5"></use><use x="2087" y="4030" href="#P0"></use><use x="1887" y="4679" href="#P5"></use><use x="2097" y="5240" href="#P6"></use><use x="2498" y="305" href="#P5"></use><use x="2228" y="585" href="#P7"></use><use x="2341" y="1284" href="#P2"></use><use x="2526" y="1931" href="#P0"></use><use x="2766" y="2299" href="#P7"></use><use x="2220" y="2768" href="#P6"></use><use x="2482" y="3609" href="#P2"></use><use x="2763" y="4310" href="#P7"></use><use x="2287" y="4808" href="#P6"></use><use x="2609" y="5355" href="#P0"></use><use x="3096" y="150" href="#P5"></use><use x="2876" y="613" href="#P6"></use><use x="3353" y="1404" href="#P5"></use><use x="2937" y="1748" href="#P2"></use><use x="3179" y="2514" href="#P1"></use><use x="2948" y="3165" href="#P0"></use><use x="3087" y="3469" href="#P0"></use><use x="2810" y="3843" href="#P4"></use><use x="3332" y="4824" href="#P1"></use><use x="2857" y="5349" href="#P7"></use><use x="3571" y="164" href="#P6"></use><use x="3557" y="893" href="#P5"></use><use x="3948" y="1205" href="#P0"></use><use x="3470" y="1950" href="#P6"></use><use x="3694" y="2639" href="#P6"></use><use x="3507" y="3198" href="#P5"></use><use x="3730" y="3423" href="#P3"></use><use x="3635" y="4070" href="#P1"></use><use x="3686" y="4492" href="#P2"></use><use x="3555" y="5167" href="#P0"></use><use x="4347" y="-34" href="#P7"></use><use x="4480" y="747" href="#P2"></use><use x="4490" y="1233" href="#P0"></use><use x="4173" y="1535" href="#P0"></use><use x="4173" y="2367" href="#P2"></use><use x="4240" y="3073" href="#P4"></use><use x="4256" y="3293" href="#P3"></use><use x="4032" y="3940" href="#P3"></use><use x="4225" y="4735" href="#P3"></use><use x="4527" y="5461" href="#P1"></use><use x="4648" y="-212" href="#P6"></use><use x="4930" y="782" href="#P5"></use><use x="5241" y="1474" href="#P1"></use><use x="4918" y="1942" href="#P5"></use><use x="5116" y="2315" href="#P2"></use><use x="4834" y="2682" href="#P2"></use><use x="5107" y="3698" href="#P4"></use><use x="4797" y="3903" href="#P3"></use><use x="4929" y="4901" href="#P2"></use><use x="4834" y="5341" href="#P4"></use></g></svg>